<svg height="512pt" viewBox="-64 0 512 512" width="512pt" xmlns="http://www.w3.org/2000/svg"><path d="m208.421875 7.546875c-8.398437-10.0625-24.359375-10.0625-32.757813 0-17.980468 21.53125-175.664062 213.253906-175.664062 312.410156 0 105.890625 86.152344 192.042969 192.042969 192.042969 105.894531 0 192.046875-86.152344 192.046875-192.042969 0-99.15625-157.6875-290.878906-175.667969-312.410156zm-59.054687 227.054687c11.785156 0 21.339843 9.554688 21.339843 21.339844s-9.554687 21.339844-21.339843 21.339844c-11.785157 0-21.335938-9.554688-21.335938-21.339844s9.550781-21.339844 21.335938-21.339844zm85.351562 128.03125c-11.78125 0-21.335938-9.554687-21.335938-21.339843 0-11.78125 9.554688-21.335938 21.335938-21.335938 11.785156 0 21.339844 9.554688 21.339844 21.335938 0 11.785156-9.554688 21.339843-21.339844 21.339843zm-91.601562 15.089844-30.175782-30.179687 128.03125-128.027344 30.175782 30.175781zm0 0"/></svg>