<svg xmlns="http://www.w3.org/2000/svg" viewBox="0 0 206.7 197.9"><defs><style>.cls-1{fill:#fff;}</style></defs><title>icon-iota</title><g id="Layer_2" data-name="Layer 2"><g id="Layer_1-2" data-name="Layer 1"><circle class="cls-1" cx="150.2" cy="12" r="12"/><circle class="cls-1" cx="153.5" cy="43.5" r="10.1"/><circle class="cls-1" cx="150.4" cy="70.1" r="8.6"/><circle class="cls-1" cx="142.5" cy="91.6" r="7.3"/><circle class="cls-1" cx="132" cy="107.8" r="6.3"/><circle class="cls-1" cx="120.2" cy="119.4" r="5.4"/><circle class="cls-1" cx="180.2" cy="47.2" r="10.2"/><circle class="cls-1" cx="176.9" cy="74" r="8.6"/><circle class="cls-1" cx="169.1" cy="95.4" r="7.3"/><circle class="cls-1" cx="158.5" cy="111.7" r="6.2"/><circle class="cls-1" cx="146.6" cy="123.1" r="5.3"/><circle class="cls-1" cx="134.6" cy="130.3" r="4.6"/><circle class="cls-1" cx="198" cy="81.8" r="8.7"/><circle class="cls-1" cx="190.2" cy="103.3" r="7.4"/><circle class="cls-1" cx="179.7" cy="119.5" r="6.4"/><circle class="cls-1" cx="167.8" cy="131.1" r="5.5"/><circle class="cls-1" cx="155.8" cy="138.3" r="4.7"/><circle class="cls-1" cx="144.5" cy="142.1" r="4"/><circle class="cls-1" cx="163.8" cy="179.3" r="12"/><circle class="cls-1" cx="134.8" cy="166.4" r="10.1"/><circle class="cls-1" cx="113.41" cy="150.39" r="8.6"/><circle class="cls-1" cx="98.6" cy="132.9" r="7.3"/><circle class="cls-1" cx="89.8" cy="115.7" r="6.3"/><circle class="cls-1" cx="85.7" cy="99.7" r="5.4"/><circle class="cls-1" cx="118.3" cy="187.7" r="10.2"/><circle class="cls-1" cx="96.7" cy="171.5" r="8.6"/><circle class="cls-1" cx="82.1" cy="154.1" r="7.3"/><circle class="cls-1" cx="73.3" cy="136.7" r="6.2"/><circle class="cls-1" cx="69.3" cy="120.7" r="5.3"/><circle class="cls-1" cx="69.1" cy="106.7" r="4.6"/><circle class="cls-1" cx="79.4" cy="185.9" r="8.7"/><circle class="cls-1" cx="64.8" cy="168.3" r="7.4"/><circle class="cls-1" cx="55.9" cy="151.2" r="6.4"/><circle class="cls-1" cx="51.8" cy="135.1" r="5.5"/><circle class="cls-1" cx="51.5" cy="121.1" r="4.7"/><circle class="cls-1" cx="53.9" cy="109.4" r="4"/><circle class="cls-1" cx="12" cy="107.5" r="12"/><circle class="cls-1" cx="37.7" cy="88.8" r="10.1"/><circle class="cls-1" cx="62.3" cy="78.3" r="8.6"/><circle class="cls-1" cx="84.8" cy="74.3" r="7.3"/><circle class="cls-1" cx="104.2" cy="75.3" r="6.3"/><circle class="cls-1" cx="120" cy="79.8" r="5.4"/><path class="cls-1" d="M24.6,54.1a10.19,10.19,0,1,1-6.8,12.7A10.18,10.18,0,0,1,24.6,54.1Z"/><circle class="cls-1" cx="52.4" cy="53.3" r="8.6"/><circle class="cls-1" cx="74.8" cy="49.4" r="7.3"/><circle class="cls-1" cx="94.2" cy="50.5" r="6.2"/><circle class="cls-1" cx="110.1" cy="55.09" r="5.3"/><circle class="cls-1" cx="122.3" cy="61.8" r="4.6"/><circle class="cls-1" cx="48.6" cy="31.1" r="8.7"/><path class="cls-1" d="M70.6,19.9a7.37,7.37,0,1,1-6.8,7.9A7.39,7.39,0,0,1,70.6,19.9Z"/><circle class="cls-1" cx="90.4" cy="28.2" r="6.4"/><circle class="cls-1" cx="106.4" cy="32.7" r="5.5"/><circle class="cls-1" cx="118.7" cy="39.4" r="4.7"/><path class="cls-1" d="M127.3,43.4a4,4,0,1,1-3.7,4.3A3.91,3.91,0,0,1,127.3,43.4Z"/></g></g></svg>